<svg width="414" height="457" viewBox="0 0 414 457" fill="none" xmlns="http://www.w3.org/2000/svg">
<path d="M278.691 287.097C243.088 330.708 202.764 363.553 166.368 381.412C129.929 399.292 97.6169 402.07 77.8401 385.925C58.0633 369.78 54.3174 337.566 64.542 298.286C74.7545 259.051 98.8637 212.969 134.466 169.357C170.069 125.746 210.393 92.9007 246.789 75.0417C283.229 57.1616 315.541 54.3837 335.317 70.5286C355.094 86.6736 358.84 118.888 348.615 158.168C338.403 197.402 314.294 243.485 278.691 287.097Z" stroke="#6F3689"/>
<path d="M180.965 334.726L208.361 353.437L228.33 326.944L209.619 354.34L236.112 374.309L208.716 355.598L188.747 382.091L207.458 354.695L180.965 334.726Z" fill="#FDC949"/>
<path d="M205.651 336.947L209.177 353.628L226.109 351.63L209.428 355.156L211.425 372.088L207.9 355.407L190.968 357.404L207.649 353.879L205.651 336.947Z" fill="#FDC949"/>
</svg>
