<?xml version="1.0" encoding="utf-8"?><svg viewBox="0 0 502.66 502.66" xmlns="http://www.w3.org/2000/svg" xmlns:xlink="http://www.w3.org/1999/xlink"><style>:root>svg{display:none}:root>svg:target{display:block}</style><svg viewBox="0 0 29 15" id="VK" xmlns="http://www.w3.org/2000/svg"><g clip-path="url(#aa)"><path fill-rule="evenodd" clip-rule="evenodd" d="M14.292 14.393h1.642s.496-.05.749-.301c.233-.231.225-.664.225-.664s-.032-2.028.99-2.327c1.008-.294 2.303 1.96 3.674 2.827 1.037.656 1.826.512 1.826.512l3.667-.047s1.919-.109 1.009-1.498c-.075-.113-.53-1.027-2.727-2.905-2.3-1.965-1.992-1.647.779-5.046 1.687-2.07 2.361-3.334 2.15-3.875-.2-.516-1.441-.38-1.441-.38l-4.13.024S22.4.675 22.172.8c-.222.122-.365.408-.365.408s-.653 1.602-1.525 2.964c-1.839 2.875-2.574 3.026-2.874 2.848-.7-.416-.525-1.671-.525-2.563 0-2.786.459-3.947-.894-4.248-.449-.1-.779-.166-1.927-.176-1.473-.014-2.72.004-3.427.322-.47.212-.832.684-.611.711.273.034.891.154 1.219.564.423.53.408 1.72.408 1.72s.243 3.28-.568 3.688c-.556.279-1.32-.292-2.96-2.9-.84-1.335-1.474-2.812-1.474-2.812s-.122-.276-.34-.424C6.044.724 5.675.667 5.675.667L1.75.69S1.161.705.945.941c-.192.21-.015.644-.015.644s3.072 6.617 6.55 9.951c3.19 3.058 6.812 2.857 6.812 2.857Z"/></g><defs><clipPath id="aa"><path d="M0 0h29v15H0z"/></clipPath></defs></svg><svg viewBox="0 0 502.664 502.664" xml:space="preserve" id="icon" xmlns="http://www.w3.org/2000/svg"><path d="M153.821 358.226 0 274.337v-46.463l153.821-83.414v54.574L46.636 250.523l107.185 53.431v54.272zm26.273 29.358L282.103 115.08h32.227L212.084 387.584h-31.99zm168.749-29.358v-54.272l107.164-52.999-107.164-52.59v-53.927l153.821 83.522v46.183l-153.821 84.083z"/></svg><svg viewBox="0 0 75 68" id="logo" xmlns="http://www.w3.org/2000/svg"><path d="M15.595 49.74c-1.678 0-3.29.6-4.486 1.672-1.196 1.072-1.882 2.528-1.909 4.055-.014.773.142 1.54.457 2.257.315.717.784 1.37 1.38 1.92.594.55 1.304.988 2.087 1.286a6.946 6.946 0 0 0 2.471.452s51.847-.014 51.847-.03V49.77c0-.017-51.847-.03-51.847-.03ZM37.21 45.508c10.274 0 18.604-5.686 18.604-12.7 0-7.014-8.33-12.7-18.605-12.7s-18.604 5.686-18.604 12.7c0 7.014 8.33 12.7 18.604 12.7Z"/><path d="M36.948 6.352c-3.71.134-7.216 1.58-9.773 4.03-2.557 2.449-3.963 5.71-3.92 9.089v4.87c1.399.636 2.574 1.614 3.395 2.824a7.155 7.155 0 0 1 1.257 4.026v5.56c-.031 2.185.847 4.3 2.457 5.92 1.61 1.621 3.835 2.628 6.227 2.819a10.17 10.17 0 0 0 3.745-.474c1.2-.39 2.299-1 3.229-1.792a8.52 8.52 0 0 0 2.178-2.813 7.821 7.821 0 0 0 .769-3.37v-5.85c0-1.422.435-2.817 1.256-4.026.822-1.21 1.997-2.188 3.395-2.824V19.05c0-1.688-.37-3.359-1.087-4.915a12.716 12.716 0 0 0-3.093-4.15 14.159 14.159 0 0 0-4.616-2.736 15.18 15.18 0 0 0-5.42-.897Z"/><path d="M48.389 12.277c-2.12.01-4.213.43-6.14 1.233a14.907 14.907 0 0 0-5.04 3.423s.496-9.525 7.997-9.525c7.425 0 10.608-3.175 10.608-3.175s0 8.044-7.425 8.044Zm-22.359 0c2.12.01 4.213.43 6.14 1.233a14.907 14.907 0 0 1 5.04 3.423s-.496-9.525-7.997-9.525c-7.426 0-10.608-3.175-10.608-3.175s0 8.044 7.425 8.044ZM44.186 22.225c-.46 0-.91-.125-1.292-.357a2.174 2.174 0 0 1-.856-.95 1.941 1.941 0 0 1-.133-1.223c.09-.41.312-.788.637-1.084.325-.296.74-.497 1.19-.579a2.54 2.54 0 0 1 1.344.12c.425.16.788.432 1.044.78.255.348.392.757.392 1.176 0 .561-.246 1.1-.682 1.496a2.45 2.45 0 0 1-1.644.62Zm-13.953 0c-.46 0-.91-.125-1.292-.357a2.173 2.173 0 0 1-.857-.95 1.94 1.94 0 0 1-.132-1.223c.09-.41.31-.788.636-1.084.325-.296.74-.497 1.19-.579a2.54 2.54 0 0 1 1.345.12c.424.16.788.432 1.043.78.256.348.392.757.392 1.176 0 .561-.246 1.1-.682 1.496a2.45 2.45 0 0 1-1.643.62ZM9.097 55.562c0-1.544.673-3.025 1.873-4.116 1.199-1.092 2.826-1.705 4.522-1.705h51.95c.617 0 1.208-.223 1.644-.62.437-.397.682-.936.682-1.497s-.245-1.1-.682-1.497a2.447 2.447 0 0 0-1.644-.62H15.698c-2.93 0-5.74 1.06-7.811 2.945-2.072 1.886-3.236 4.443-3.236 7.11 0 2.666 1.164 5.223 3.236 7.109 2.071 1.885 4.881 2.944 7.81 2.944h51.745a2.44 2.44 0 0 0 1.644-.62 2.02 2.02 0 0 0 .682-1.496c0-.562-.245-1.1-.682-1.497a2.447 2.447 0 0 0-1.644-.62h-51.95c-1.696 0-3.323-.613-4.522-1.705-1.2-1.091-1.873-2.572-1.873-4.115Z"/><path d="M68.605 60.519v-9.915a3.428 3.428 0 0 0 1.845-1.383 2.928 2.928 0 0 0 .428-2.141 3.116 3.116 0 0 0-1.19-1.887 3.694 3.694 0 0 0-2.246-.744H47.677c5.59-2.44 9.3-6.755 9.3-11.641a11.115 11.115 0 0 0-1.288-4.871 12.202 12.202 0 0 0-3.363-3.966V19.05a12.67 12.67 0 0 0-1.535-6.001c4.824-1.221 6.186-6.078 6.186-8.816l-.006-2.667-2.01 1.948c-.12.116-3.004 2.836-9.755 2.836a8.763 8.763 0 0 0-1.764.196 16.242 16.242 0 0 0-6.515-1.252 15.65 15.65 0 0 0-5.884 1.266 8.74 8.74 0 0 0-1.83-.21c-6.751 0-9.635-2.72-9.749-2.83l-2.022-2.017v2.73c0 2.762 1.383 7.68 6.305 8.848a13.33 13.33 0 0 0-1.654 6.39v4.5a12.2 12.2 0 0 0-3.363 3.966 11.114 11.114 0 0 0-1.288 4.87c0 4.89 3.712 9.205 9.308 11.642H15.698c-3.238 0-6.344 1.171-8.634 3.255-2.29 2.084-3.576 4.91-3.576 7.858 0 2.947 1.287 5.773 3.576 7.857 2.29 2.084 5.396 3.255 8.634 3.255h51.744a3.694 3.694 0 0 0 2.247-.744 3.116 3.116 0 0 0 1.19-1.887 2.928 2.928 0 0 0-.43-2.14 3.428 3.428 0 0 0-1.844-1.384Zm-2.326-4.428H55.814v2.116H66.28v2.117H15.492c-1.388 0-2.719-.502-3.7-1.395-.981-.893-1.533-2.104-1.533-3.367 0-1.264.552-2.475 1.533-3.368.981-.893 2.312-1.395 3.7-1.395h50.787v5.292ZM24.42 23.715V19.47a11.441 11.441 0 0 1 1.807-6.128 15.08 15.08 0 0 1 5.517 1.17c1.732.73 3.28 1.775 4.55 3.072l.916 1.069.917-1.07a13.79 13.79 0 0 1 4.596-3.104 14.951 14.951 0 0 1 5.585-1.141A10.772 10.772 0 0 1 50 19.049v4.666c-1.422.77-2.6 1.865-3.415 3.176a8.065 8.065 0 0 0-1.236 4.3v5.85a6.86 6.86 0 0 1-.673 2.95 7.457 7.457 0 0 1-1.907 2.46 8.322 8.322 0 0 1-2.826 1.568 8.886 8.886 0 0 1-3.278.414c-2.1-.167-4.05-1.053-5.46-2.48-1.41-1.425-2.173-3.284-2.135-5.202v-5.56a8.066 8.066 0 0 0-1.236-4.3c-.816-1.311-1.993-2.406-3.415-3.176Zm30.232 9.093c0 4.447-3.796 8.342-9.382 10.293 1.548-1.706 2.398-3.847 2.406-6.06v-5.85a6.09 6.09 0 0 1 .864-3.131 6.832 6.832 0 0 1 2.403-2.375 9.996 9.996 0 0 1 2.672 3.209 9.13 9.13 0 0 1 1.037 3.914Zm-.337-26.282c-.556 2.038-2.028 4.693-5.925 4.693-3.409-.001-6.727.995-9.466 2.842.737-2.477 2.433-5.594 6.283-5.594a20.004 20.004 0 0 0 9.108-1.941ZM36.97 7.41c1.176-.019 2.35.115 3.485.398-1.482 1.105-2.604 2.558-3.246 4.2-.64-1.637-1.756-3.087-3.231-4.191.974-.25 1.98-.386 2.992-.407Zm-16.856-.88a20.017 20.017 0 0 0 9.099 1.937c3.85 0 5.545 3.118 6.282 5.594-2.738-1.847-6.056-2.843-9.465-2.842-3.874 0-5.352-2.65-5.916-4.688Zm-.347 26.278a9.128 9.128 0 0 1 1.038-3.914 9.996 9.996 0 0 1 2.672-3.209 6.832 6.832 0 0 1 2.402 2.375 6.09 6.09 0 0 1 .865 3.13v5.561c-.003 2.325.887 4.578 2.517 6.369-5.645-1.934-9.494-5.838-9.494-10.312Zm47.675 31.75H15.698c-2.622 0-5.136-.949-6.99-2.636-1.853-1.687-2.894-3.975-2.894-6.36 0-2.386 1.041-4.674 2.895-6.361 1.853-1.687 4.367-2.635 6.989-2.635h51.744c.308 0 .604.111.822.31.218.198.34.468.34.748 0 .28-.122.55-.34.748-.218.199-.514.31-.822.31h-51.95c-2.005 0-3.927.725-5.345 2.015-1.417 1.29-2.213 3.04-2.213 4.864 0 1.825.796 3.575 2.214 4.865 1.417 1.29 3.34 2.014 5.344 2.014h51.95c.308 0 .604.112.822.31.218.199.34.468.34.749 0 .28-.122.55-.34.748-.218.199-.514.31-.822.31Z"/><path d="M36.047 22.225h2.325v4.233h-2.325v-4.233Zm8.14 1.058c.69 0 1.364-.186 1.937-.535a3.26 3.26 0 0 0 1.285-1.425c.264-.58.333-1.218.199-1.834a3.098 3.098 0 0 0-.955-1.626 3.607 3.607 0 0 0-1.786-.869 3.81 3.81 0 0 0-2.016.18 3.439 3.439 0 0 0-1.565 1.17 2.976 2.976 0 0 0-.588 1.764c0 .842.368 1.649 1.023 2.244.654.595 1.54.93 2.465.93Zm0-4.233c.23 0 .454.062.645.178.191.116.34.282.428.475a.97.97 0 0 1 .067.611 1.033 1.033 0 0 1-.319.542c-.162.148-.37.25-.595.29-.226.04-.46.02-.672-.06a1.146 1.146 0 0 1-.522-.39.992.992 0 0 1-.196-.588c0-.28.123-.55.341-.748.218-.198.514-.31.822-.31ZM33.72 20.108c0-.628-.205-1.242-.588-1.764a3.439 3.439 0 0 0-1.565-1.17 3.81 3.81 0 0 0-2.016-.18 3.607 3.607 0 0 0-1.786.869 3.098 3.098 0 0 0-.955 1.626 2.911 2.911 0 0 0 .199 1.834 3.26 3.26 0 0 0 1.285 1.425 3.737 3.737 0 0 0 1.938.535c.924 0 1.811-.336 2.465-.93.654-.596 1.022-1.403 1.023-2.245Zm-4.651 0c0-.21.068-.414.196-.588s.31-.31.522-.39a1.27 1.27 0 0 1 .671-.06c.226.04.433.142.596.29.163.148.273.336.318.541a.97.97 0 0 1-.066.612 1.086 1.086 0 0 1-.428.475 1.246 1.246 0 0 1-.646.178c-.309 0-.604-.112-.822-.31a1.013 1.013 0 0 1-.341-.748Zm17.442 32.808h5.814v2.116h-5.814v-2.116ZM18.605 56.09h22.093v2.116H18.605V56.09Z"/></svg></svg>